<svg fill="none" height="62" viewBox="0 0 88 62" width="88" xmlns="http://www.w3.org/2000/svg"><path d="m68.1163 53.2915c-.0663 1.6327.0321 3.1373.3812 4.0643.0509.1352.4054 1.0446.4467.4372.1558-2.2937-.0178-3.5703-.4814-4.4368-.0895-.1673-.2821-.3562-.3774-.3562-.2538 0 .1323 1.5925.2003 1.8783.1432.6023.2484 1.3002.3851 1.9108.0358.1601 0-1.5158 0-2.0403" stroke="#000" stroke-linecap="round" stroke-width="3"/><path d="m19.5414 30.348c-1.0708.2321-2.6842.443-4.341.4007-5.20131 2.5588-11.84915 6.8533-12.97453 13.2652-.31892 1.817-.40413 4.8982.45021 6.4854 1.81609 3.3741 6.64311 4.2042 9.81792 4.343 5.9953.2621 12.4712.7599 17.3155-3.899 2.931-2.8188 5.2953-6.4604 8.2768-9.1685.2974-.2701 2.0175-.4205 2.0779-.6562.8553-3.337 5.6983-7.1169 1.7315-10.5775-3.1046-2.7085-6.8622-1.1921-10.0603.3474-.157.0755-.3121.1591-.465.2497-.6222.5467-1.2884 1.0623-1.9438 1.6382-.2544.2858-.4916.5854-.708.8916-.5074.7179-1.7265 1.6543-.5195.3088.3953-.4406.8092-.8328 1.2275-1.2004.5736-.6441 1.2348-1.2178 1.9438-1.6382.1529-.0906.308-.1742.465-.2497 3.1981-1.5395 6.9557-3.0559 10.0603-.3474 3.9668 3.4606-.8762 7.2405-1.7315 10.5775-.0604.2357-1.7805.3861-2.0779.6562-2.9815 2.7081-5.3458 6.3497-8.2768 9.1685-4.8443 4.6589-11.3202 4.1611-17.3155 3.899-3.17481-.1388-8.00183-.9689-9.81792-4.343-.85434-1.5872-.76913-4.6684-.45021-6.4854 1.12538-6.4119 7.77322-10.7064 12.97453-13.2652.4554-.224.8996-.4346 1.3281-.6323 2.2354-1.0311 9.0507-3.393 7.0647-1.853-1.1394.8835-2.6924 1.79-4.0518 2.0846z" fill="#e5f774"/><g stroke="#000" stroke-linecap="round" stroke-width="3"><path d="m37.3764 9.69487c-9.9683 0-29.43655 1.05863-28.65721 16.69623.25472 5.1109 7.75911 4.6209 10.82221 3.9569 1.3594-.2946 2.9124-1.201 4.0518-2.0846 1.986-1.54-4.8293.8219-7.0647 1.853-5.3232 2.4554-13.07873 6.9243-14.30263 13.8975-.31892 1.817-.40413 4.8982.45021 6.4854 1.81609 3.3741 6.64311 4.2042 9.81792 4.343 5.9953.2621 12.4712.7599 17.3155-3.899 2.931-2.8188 5.2953-6.4604 8.2768-9.1685.2974-.2701 2.0175-.4205 2.0779-.6562.8553-3.337 5.6983-7.1169 1.7315-10.5775-3.1046-2.7085-6.8622-1.1921-10.0603.3474-1.2076.5813-2.3073 1.6342-3.1168 2.7795-.5074.7179-1.7265 1.6543-.5195.3088 2.2246-2.4798 5.0414-3.4271 5.9046-7.0838.7857-3.3282-4.2739-6.112-6.6664-6.4083-.4509-.0558-3.003-.3667-1.4545-.3667h8.5192c3.7353 0 8.6198.3973 9.3504-4.9414.1809-1.3219.4314-2.7441-.8658-3.1269-.8813-.26-1.7572-.4367-2.632-.6949-.4626-.1365-2.2391-.5754-2.4241-.9651-.3266-.68766-.8301-1.14479-1.4892-1.3897"/><path d="m34.6994 8.96504c-2.2951-.43314-7.2628-2.44201-3.076-4.89572 2.807-1.645 5.7047-2.17906 8.863-2.05118 2.8971.11731 5.5432 1.76208 8.2894 2.68975 6.2841 2.12281 13.147 2.51559 19.7069 2.51559 2.1177 0 4.282.14293 6.3952-.01935 1.4064-.108 2.6921-.67727 4.1013-.67727h3.0238c1.3947 0 1.8637 1.45603 2.7458 2.43818.7151.79635 1.2512 1.99066 1.2512 3.13486 0 1.7365-1.0035 1.7492-2.433 2.1672-6.8388 1.9999-14.1186 1.3159-21.1319 1.3159-1.3787 0-2.7574 0-4.136 0-1.4114 0-1.3008-.0158-.3824.9675 2.8608 3.0629 6.6427 4.963 8.5154 9.1335 1.514 3.3718 1.1201 9.153.5561 12.7328-.6462 4.1014-1.6071 8.5314-3.1976 12.3264-1.2188 2.908-3.6091 8.3674-6.8818 8.9981-4.4516.8579-8.5871-.3787-11.4349-4.2959-1.9574-2.6923-1.3514-8.2356-.6951-11.3782.9687-4.6381 2.8243-8.4622 4.3098-12.8102.9558-2.7976.8389-5.2366-.7299-7.6822-1.0835-1.6891-3.3246-2.7924-4.6747-4.2958-.4294-.4781-.2474-.9214-.8516-1.2578"/><path d="m36.2325 53.2332c-.1326 1.3062.0643 2.5098.7625 3.2514.1018.1082.8108.8357.8933.3498.3117-1.835-.0354-2.8563-.9627-3.5494-.179-.1339-.5641-.285-.7547-.285-.5078 0 .2645 1.274.4005 1.5027.2864.4818.4968 1.0401.7701 1.5285.0717.1282 0-1.2126 0-1.6322"/></g></svg>